<?xml version="1.0" encoding="UTF-8" standalone="no"?>
<!DOCTYPE svg PUBLIC "-//W3C//DTD SVG 1.1//EN" "http://www.w3.org/Graphics/SVG/1.1/DTD/svg11.dtd">
<svg width="100%" height="100%" viewBox="0 0 512 512" version="1.1" xmlns="http://www.w3.org/2000/svg" xmlns:xlink="http://www.w3.org/1999/xlink" xml:space="preserve" xmlns:serif="http://www.serif.com/" style="fill-rule:evenodd;clip-rule:evenodd;stroke-linejoin:round;stroke-miterlimit:2;">
    <g transform="matrix(0.924701,0,0,0.924701,-26506.5,-343.619)">
        <rect x="28664.9" y="371.6" width="553.693" height="553.693" style="fill:rgb(15,25,34);"/>
    </g>
    <g transform="matrix(-2.8375,0,0,3.37424,1858.71,-4258.88)">
        <rect x="541.685" y="1302.79" width="3.744" height="33.815" style="fill:rgb(184,153,248);"/>
    </g>
    <g transform="matrix(-0.557718,0,0,0.865123,527.301,-1007.93)">
        <rect x="541.685" y="1302.79" width="3.744" height="33.815" style="fill:rgb(184,153,248);"/>
    </g>
    <g transform="matrix(-0.557718,0,0,0.865123,535.718,-1007.93)">
        <rect x="541.685" y="1302.79" width="3.744" height="33.815" style="fill:rgb(184,153,248);"/>
    </g>
    <g transform="matrix(-2.8375,0,0,1.88933,1923.24,-2274.14)">
        <rect x="541.685" y="1302.79" width="3.744" height="33.815" style="fill:rgb(184,153,248);"/>
    </g>
    <g transform="matrix(-1.80487,0,0,2.06976,1630.79,-2278.08)">
        <rect x="829.752" y="1199.82" width="4.611" height="17.125" style="fill:rgb(184,153,248);"/>
    </g>
    <g transform="matrix(-1.80487,0,0,2.4671,1665.85,-2768.04)">
        <rect x="829.752" y="1199.82" width="4.611" height="17.125" style="fill:rgb(184,153,248);"/>
    </g>
    <g transform="matrix(-7.02656,0,0,5.43256,9095.61,-6529.32)">
        <ellipse cx="1268.7" cy="1251.85" rx="12.758" ry="7.956" style="fill:rgb(137,72,245);"/>
    </g>
    <g transform="matrix(1.39862,0,0,1.39862,-1005.99,-1455.54)">
        <path d="M1027.75,1231.2C1027.32,1300.07 971.278,1355.84 902.314,1355.84C833.081,1355.84 776.872,1299.63 776.872,1230.39L1027.76,1230.39L1027.75,1231.2Z" style="fill:url(#_Linear1);"/>
    </g>
    <g transform="matrix(1.53909,0,0,0.782851,-1108.39,-715.235)">
        <path d="M1006.14,1253.57C1006.14,1240.77 1000.86,1230.39 994.35,1230.39C953.657,1230.39 819.326,1230.39 778.632,1230.39C772.123,1230.39 766.846,1240.77 766.846,1253.57C766.846,1264.28 766.846,1274.66 766.846,1274.66L1006.14,1274.66L1006.14,1253.57Z" style="fill:rgb(137,72,245);"/>
    </g>
    <g transform="matrix(0.0864954,0,0,-1.22406,5.5268,1824.21)">
        <path d="M997.201,1238.53C997.201,1234.04 945.641,1230.39 882.039,1230.39C882.029,1230.39 882.018,1230.39 882.008,1230.39C818.406,1230.39 766.846,1234.04 766.846,1238.53C766.846,1248.8 766.846,1265.15 766.846,1265.15L997.201,1265.15L997.201,1238.53Z" style="fill:rgb(137,72,245);"/>
    </g>
    <g transform="matrix(0.0756543,-5.1198e-18,7.2454e-17,-1.66227,42.2049,2378.61)">
        <path d="M997.201,1235.64C997.201,1232.74 945.636,1230.39 882.027,1230.39C882.025,1230.39 882.022,1230.39 882.02,1230.39C818.411,1230.39 766.846,1232.74 766.846,1235.64C766.846,1245.35 766.846,1265.15 766.846,1265.15L997.201,1265.15L997.201,1235.64Z" style="fill:rgb(137,72,245);"/>
    </g>
    <g transform="matrix(0.07849,-2.41228e-18,3.41379e-17,-1.38953,128.625,2033.55)">
        <path d="M997.201,1236.9C997.201,1233.31 945.648,1230.39 882.054,1230.39C882.034,1230.39 882.013,1230.39 881.993,1230.39C818.399,1230.39 766.846,1233.31 766.846,1236.9C766.846,1246.96 766.846,1265.15 766.846,1265.15L997.201,1265.15L997.201,1236.9Z" style="fill:rgb(137,72,245);"/>
    </g>
    <g transform="matrix(0.07849,-7.04721e-30,9.9718e-29,-1.11077,177.73,1680.88)">
        <path d="M997.201,1238.53C997.201,1236.37 985.069,1234.3 963.475,1232.78C941.881,1231.25 912.593,1230.39 882.054,1230.39L881.993,1230.39C851.454,1230.39 822.166,1231.25 800.572,1232.78C778.978,1234.3 766.846,1236.37 766.846,1238.53C766.846,1248.8 766.846,1265.15 766.846,1265.15L997.201,1265.15L997.201,1238.53Z" style="fill:rgb(137,72,245);"/>
    </g>
    <g transform="matrix(0.065705,-5.0069e-18,7.08563e-17,-1.50842,164.847,2183.97)">
        <path d="M997.201,1235.41C997.201,1234.08 985.068,1232.8 963.471,1231.86C941.875,1230.92 912.584,1230.39 882.041,1230.39C882.029,1230.39 882.017,1230.39 882.005,1230.39C851.463,1230.39 822.172,1230.92 800.575,1231.86C778.979,1232.8 766.846,1234.08 766.846,1235.41C766.846,1245.04 766.846,1265.15 766.846,1265.15L997.201,1265.15L997.201,1235.41Z" style="fill:rgb(137,72,245);"/>
    </g>
    <g transform="matrix(0.07849,-7.04721e-30,9.9718e-29,-1.11077,361.874,1680.88)">
        <path d="M997.201,1238.53C997.201,1236.37 985.069,1234.3 963.475,1232.78C941.881,1231.25 912.593,1230.39 882.054,1230.39L881.993,1230.39C851.454,1230.39 822.166,1231.25 800.572,1232.78C778.978,1234.3 766.846,1236.37 766.846,1238.53C766.846,1248.8 766.846,1265.15 766.846,1265.15L997.201,1265.15C997.201,1265.15 997.201,1248.8 997.201,1238.53Z" style="fill:rgb(137,72,245);"/>
    </g>
    <g transform="matrix(0.0830343,-2.88466e-18,4.0823e-17,-1.50842,328.35,2183.97)">
        <path d="M997.201,1236.73C997.201,1235.05 985.069,1233.44 963.476,1232.25C941.882,1231.06 912.594,1230.39 882.056,1230.39C882.034,1230.39 882.013,1230.39 881.991,1230.39C851.453,1230.39 822.165,1231.06 800.571,1232.25C778.978,1233.44 766.846,1235.05 766.846,1236.73C766.846,1246.76 766.846,1265.15 766.846,1265.15L997.201,1265.15C997.201,1265.15 997.201,1246.76 997.201,1236.73Z" style="fill:rgb(137,72,245);"/>
    </g>
    <g transform="matrix(-1.39862,0,0,1.39862,1476.61,-1472.87)">
        <path d="M786.343,1390.13L786.343,1244.04C786.343,1236.51 792.454,1230.39 799.993,1230.39C810.462,1230.39 823.133,1230.39 823.133,1230.39L823.131,1230.39C817.02,1230.39 812.067,1235.35 812.067,1241.46L812.067,1390.13L786.343,1390.13Z" style="fill:url(#_Linear2);"/>
    </g>
    <g transform="matrix(-4.04794,0,0,3.57552,2905.01,-4519.97)">
        <path d="M627.172,1301.63C627.825,1299.74 630.544,1298.32 633.793,1298.32C637.043,1298.32 639.761,1299.74 640.415,1301.63L627.172,1301.63Z" style="fill:rgb(137,72,245);"/>
    </g>
    <g transform="matrix(-3.91001,-0.925412,-1.04768,3.45368,4179.55,-3765.68)">
        <path d="M627.172,1301.63C627.825,1299.74 630.544,1298.32 633.793,1298.32C637.043,1298.32 639.761,1299.74 640.415,1301.63L627.172,1301.63Z" style="fill:rgb(137,72,245);"/>
    </g>
    <g transform="matrix(-2.86233,-2.52827,-2.86233,2.52827,5870.6,-1536.53)">
        <path d="M627.172,1301.63C627.825,1299.74 630.544,1298.32 633.793,1298.32C637.043,1298.32 639.761,1299.74 640.415,1301.63L627.172,1301.63Z" style="fill:rgb(137,72,245);"/>
    </g>
    <g transform="matrix(4.04794,0,0,3.57552,-2272.27,-4519.97)">
        <path d="M627.172,1301.63C627.825,1299.74 630.544,1298.32 633.793,1298.32C637.043,1298.32 639.761,1299.74 640.415,1301.63L627.172,1301.63Z" style="fill:rgb(137,72,245);"/>
    </g>
    <g transform="matrix(3.91001,-0.925412,1.04768,3.45368,-3546.82,-3765.68)">
        <path d="M627.172,1301.63C627.825,1299.74 630.544,1298.32 633.793,1298.32C637.043,1298.32 639.761,1299.74 640.415,1301.63L627.172,1301.63Z" style="fill:rgb(137,72,245);"/>
    </g>
    <g transform="matrix(2.86233,-2.52827,2.86233,2.52827,-5237.86,-1536.53)">
        <path d="M627.172,1301.63C627.825,1299.74 630.544,1298.32 633.793,1298.32C637.043,1298.32 639.761,1299.74 640.415,1301.63L627.172,1301.63Z" style="fill:rgb(137,72,245);"/>
    </g>
    <g transform="matrix(-4.04794,0,0,3.57552,2969.53,-4469.75)">
        <path d="M627.172,1301.63C627.825,1299.74 630.544,1298.32 633.793,1298.32C637.043,1298.32 639.761,1299.74 640.415,1301.63L627.172,1301.63Z" style="fill:rgb(137,72,245);"/>
    </g>
    <g transform="matrix(-3.91001,-0.925412,-1.04768,3.45368,4244.08,-3715.47)">
        <path d="M627.172,1301.63C627.825,1299.74 630.544,1298.32 633.793,1298.32C637.043,1298.32 639.761,1299.74 640.415,1301.63L627.172,1301.63Z" style="fill:rgb(137,72,245);"/>
    </g>
    <g transform="matrix(-2.86233,-2.52827,-2.86233,2.52827,5935.12,-1486.32)">
        <path d="M627.172,1301.63C627.825,1299.74 630.544,1298.32 633.793,1298.32C637.043,1298.32 639.761,1299.74 640.415,1301.63L627.172,1301.63Z" style="fill:rgb(137,72,245);"/>
    </g>
    <g transform="matrix(4.04794,0,0,3.57552,-2207.75,-4469.75)">
        <path d="M627.172,1301.63C627.825,1299.74 630.544,1298.32 633.793,1298.32C637.043,1298.32 639.761,1299.74 640.415,1301.63L627.172,1301.63Z" style="fill:rgb(137,72,245);"/>
    </g>
    <g transform="matrix(3.91001,-0.925412,1.04768,3.45368,-3482.29,-3715.47)">
        <path d="M627.172,1301.63C627.825,1299.74 630.544,1298.32 633.793,1298.32C637.043,1298.32 639.761,1299.74 640.415,1301.63L627.172,1301.63Z" style="fill:rgb(137,72,245);"/>
    </g>
    <g transform="matrix(2.86233,-2.52827,2.86233,2.52827,-5173.33,-1486.32)">
        <path d="M627.172,1301.63C627.825,1299.74 630.544,1298.32 633.793,1298.32C637.043,1298.32 639.761,1299.74 640.415,1301.63L627.172,1301.63Z" style="fill:rgb(137,72,245);"/>
    </g>
    <g transform="matrix(-3.56407,0,0,3.56407,1327.42,-4501.72)">
        <circle cx="336.243" cy="1317.4" r="6.036" style="fill:rgb(137,72,245);"/>
    </g>
    <g transform="matrix(-4.53833,0,0,4.53833,1690.08,-5798.52)">
        <circle cx="336.243" cy="1317.4" r="6.036" style="fill:rgb(137,72,245);"/>
    </g>
    <g transform="matrix(0.105186,0,0,0.105186,-476.897,-122.234)">
        <g transform="matrix(3.09078,0,0,3.09078,-2479.32,-5308.45)">
            <path d="M3056.49,2378.03L3056.49,2361.8C3056.49,2344.03 3049.43,2326.99 3036.86,2314.42C3024.29,2301.85 3007.24,2294.79 2989.47,2294.79L2953.45,2294.79C2935.68,2294.79 2918.63,2301.85 2906.06,2314.42C2893.5,2326.99 2886.44,2344.03 2886.44,2361.8L2886.44,2378.03C2886.44,2407.29 2905.86,2433 2934.01,2440.98C2934.02,2440.98 2934.02,2440.98 2934.02,2440.98C2944.46,2443.95 2951.67,2457.96 2951.67,2468.82C2951.67,2471.46 2951.67,2468.82 2951.67,2468.82L2991.25,2468.82C2991.25,2468.82 2991.25,2471.46 2991.25,2468.82C2991.25,2457.96 2998.46,2443.95 3008.91,2440.98C3008.91,2440.98 3008.91,2440.98 3008.91,2440.98C3037.06,2433 3056.49,2407.29 3056.49,2378.03Z" style="fill:rgb(111,60,255);"/>
        </g>
        <g transform="matrix(3.09078,0,0,3.09078,-1771.66,-5303.9)">
            <path d="M2752.69,2293.32C2761.9,2307.21 2772.39,2331.86 2772.39,2372.15C2772.39,2408.05 2765.27,2412.36 2751.76,2433.27C2747.21,2440.3 2746.64,2454.07 2747.44,2467.35L2756.97,2467.35C2757.06,2460.28 2758.47,2446.28 2767.44,2437.3C2779.85,2424.9 2798.73,2409.12 2798.73,2370.69C2798.73,2339.85 2794.8,2315.06 2765.53,2293.51C2763.87,2293.38 2762.2,2293.32 2760.51,2293.32L2752.69,2293.32Z" style="fill:rgb(184,153,248);"/>
        </g>
        <g transform="matrix(3.09078,0,0,3.09078,-1771.66,-5303.9)">
            <path d="M2732.32,2293.32C2723.11,2307.21 2712.62,2331.86 2712.62,2372.15C2712.62,2408.05 2719.74,2412.36 2733.25,2433.27C2737.79,2440.3 2738.36,2454.07 2737.57,2467.35L2728.04,2467.35C2727.95,2460.28 2726.54,2446.28 2717.57,2437.3C2705.16,2424.9 2686.28,2409.12 2686.28,2370.69C2686.28,2339.85 2690.21,2315.06 2719.48,2293.51C2721.14,2293.38 2722.81,2293.32 2724.49,2293.32L2732.32,2293.32Z" style="fill:rgb(184,153,248);"/>
        </g>
        <g transform="matrix(3.09078,0,0,3.09078,-2477.15,-5303.9)">
            <path d="M2992.71,2456.22L2948.81,2456.22C2950.2,2459.93 2950.97,2463.81 2950.97,2467.35C2950.97,2467.35 2950.97,2467.46 2950.97,2467.35L2990.55,2467.35C2990.55,2463.81 2991.32,2459.93 2992.71,2456.22Z" style="fill:rgb(184,153,248);"/>
        </g>
    </g>
    <g transform="matrix(0.08344,0,0,0.0719858,109.606,-23.7945)">
        <path d="M1576.06,2354.51L1270.32,2354.51C1270.32,2354.51 1270.32,2427.83 1270.32,2496.25C1270.32,2527 1280.86,2556.49 1299.62,2578.23C1318.37,2599.97 1343.81,2612.19 1370.34,2612.19C1404.26,2612.19 1442.13,2612.19 1476.04,2612.19C1502.57,2612.19 1528.01,2599.97 1546.77,2578.23C1565.53,2556.49 1576.06,2527 1576.06,2496.25C1576.06,2427.83 1576.06,2354.51 1576.06,2354.51Z" style="fill:rgb(137,72,245);"/>
    </g>
    <defs>
        <linearGradient id="_Linear1" x1="0" y1="0" x2="1" y2="0" gradientUnits="userSpaceOnUse" gradientTransform="matrix(0.501174,-125.442,125.442,0.501174,902.314,1355.84)"><stop offset="0" style="stop-color:rgb(255,254,249);stop-opacity:1"/><stop offset="0.51" style="stop-color:rgb(238,230,249);stop-opacity:1"/><stop offset="1" style="stop-color:rgb(184,153,248);stop-opacity:1"/></linearGradient>
        <linearGradient id="_Linear2" x1="0" y1="0" x2="1" y2="0" gradientUnits="userSpaceOnUse" gradientTransform="matrix(8.61718e-15,149,-140.729,9.12359e-15,799.919,1241.13)"><stop offset="0" style="stop-color:rgb(184,153,248);stop-opacity:1"/><stop offset="0.57" style="stop-color:rgb(193,166,248);stop-opacity:0.8"/><stop offset="0.79" style="stop-color:rgb(212,193,249);stop-opacity:0.39"/><stop offset="1" style="stop-color:rgb(230,218,249);stop-opacity:0"/></linearGradient>
    </defs>
</svg>
